<svg xmlns="http://www.w3.org/2000/svg" width="24.002" height="24.003" viewBox="0 0 24.002 24.003">
  <g id="expertsa-logo-micro-blanc" transform="translate(0)">
    <path id="Tracé_1277" data-name="Tracé 1277" d="M71.94,59.93a11.944,11.944,0,0,0-7.048,2.288,1.951,1.951,0,0,1,.359.333,2.548,2.548,0,0,1,.563,1.709,3.389,3.389,0,0,1-.8,2.084,5.994,5.994,0,0,1-2.3,1.72l-.155-.375q2.072-1.147,2.073-2.315a.312.312,0,0,0-.353-.353l-.816.133a1.532,1.532,0,0,1-1.025-.386c-.024-.02-.045-.043-.067-.064a12,12,0,1,0,9.579-4.773Zm1.111,6.812.029.005c.131.021.257.045.379.073l-.023.02.024-.02.056.014-.11.157a1.007,1.007,0,0,0,.211-.132,4.207,4.207,0,0,1,.42.134l-.3.242c.112-.076.225-.151.338-.227a3.313,3.313,0,0,1,.49.237l-.738.633L73.7,68q.47-.354.945-.7a2.487,2.487,0,0,1,.336.257c.023.021.044.044.065.065l-.667.547c.2-.141.391-.281.588-.421l-1.04.839q.589-.455,1.18-.905a2.517,2.517,0,0,1,.369.53l-.148.15.163-.122a4.7,4.7,0,0,1,.27.683c-1.021.857-2.084,1.615-3.122,2.45v-.586l.17-.173-.17.129v-.021l.323-.267-.323.253V70.33q0-.372-.011-.7c0-.06,0-.12-.007-.177-.01-.233-.025-.445-.044-.638,0-.026-.005-.051-.008-.077a4.032,4.032,0,0,0-.193-.944c-.009-.022-.017-.044-.026-.065,0,0,0,0,0-.007-.139-.313-.672-.528-1-.618l.593-.448c.286.015.86.043,1.111.083Zm-.483,4.686c-.213.172-.428.342-.642.512l-.086.012a4.235,4.235,0,0,0-.873.2l.654-.6.946-.126Zm-4.382-3.974a6.111,6.111,0,0,1,3.459-.811l-.464.422a3.015,3.015,0,0,0-.766.08.032.032,0,0,0-.009,0,.692.692,0,0,0-.3.151.54.54,0,0,0-.178.534c.02.088.045.189.076.3l0,0-1.126,1.117,1.168-1.022c.024.081.077.3.107.389a2.738,2.738,0,0,1,.156.778c0,.015,0,.029,0,.044,0,.037,0,.073-.005.109a1.629,1.629,0,0,1-1.627,1.491c-.045,0-.088,0-.133-.006h-.011a1.586,1.586,0,0,1-.485-.113l.076-.069-.081.067a1.59,1.59,0,0,1-.3-.169l1.081-1.023s-1.155.87-1.215.918c-.031-.027-.063-.054-.093-.084a1.555,1.555,0,0,1-.454-.817,1.677,1.677,0,0,1-.032-.288c0-.02,0-.04,0-.061a2.338,2.338,0,0,1,1.167-1.943Zm-1.075,5.778.923-.76a7.294,7.294,0,0,1,.885-.381c-.042.034-1.558,1.269-2.189,1.791A3.036,3.036,0,0,1,67.111,73.233Zm-.439.883s1.945-1.638,2.392-2.064c.229-.071.477-.139.744-.2l.1-.022c.287-.064.595-.122.923-.174-1.153.857-4.293,3.273-4.293,3.273a6.126,6.126,0,0,1,.135-.813Zm-.121.97,4.315-3.434c.223-.035.5-.067.741-.1l-4.977,4.091a3.265,3.265,0,0,1-.08-.56Zm1.634,1.974c-.044-.013-.088-.027-.131-.042-.082-.029-.163-.06-.24-.1,0,0,0,0-.006,0a2.666,2.666,0,0,1-.281-.148q.856-.8,1.719-1.591-.94.743-1.866,1.5l-.038-.026c-.05-.036-.1-.073-.142-.113l.036-.029-.185-.222.425-.414-.035-.059.2-.2-.74.628a3.094,3.094,0,0,1-.145-.281L68,74.782l-.048-.079,1.971-1.651a2.69,2.69,0,0,0-.293,1.262v.043c0,.057,0,.116.009.175a2.608,2.608,0,0,0,.148.6.14.14,0,0,0,.008.018,2.032,2.032,0,0,0,.155.31c.013.022.028.042.042.063a1.706,1.706,0,0,0,.27.311c.018.016.037.03.055.045l-1.63,1.3a3.685,3.685,0,0,1-.5-.111Zm1.34.158a3.231,3.231,0,0,1-.61-.019c.487-.424,1.42-1.3,1.42-1.3a3.8,3.8,0,0,0,.549.308c-.276.231-.538.438-.81.673l-.08-.035c-.177.138-.291.233-.467.372Zm4.718-.551c.465-.419.535-.513,1.011-.922-.638.506-.87.7-1.5,1.216a2.046,2.046,0,0,1-.41-.2c.017-.015.692-.661.692-.661l-.8.588a1.56,1.56,0,0,1-.188-.166c.071-.066.141-.133.212-.2l-.093.06-.133-.176.226-.254-.421.29a1.548,1.548,0,0,1-.093-.182,3.293,3.293,0,0,1-.994.7l.273-.353-.593.483A6.424,6.424,0,0,1,70,77.225l.941-.984a4.5,4.5,0,0,0,.512.043,1.478,1.478,0,0,0,1.189-.666V74.8q.323-.3.649-.6-.326.244-.649.49V71.842l-.673.093,3.816-2.945a7.485,7.485,0,0,1,.182,1.417l-.273.24.273-.229c0,.109.006.219.007.333-1.142.964-.779.6-1.849,1.486l1.85-1.252v.686s-.478.443-.512.472l.512-.329v2.959c0,.093,0,.183,0,.268v.033c.01.232.056.632.085.8l-.633.461-.173-.053-.676.645Zm3.084-.071a1.957,1.957,0,0,1-.844.389,5.2,5.2,0,0,1-1.078.158s.384-.4.444-.471c-.109.094-.362.32-.537.474-.089,0-.18.005-.273.005h-.063c.237-.214.979-1,1.133-1.144a1.431,1.431,0,0,0,.152.246q.288.3,1.066.123Z" transform="translate(-59.94 -59.93)" fill="#fff"/>
    <path id="Tracé_1278" data-name="Tracé 1278" d="M81.668,82.676l.816-.133a.312.312,0,0,1,.353.353q0,1.17-2.073,2.315l.155.375a5.976,5.976,0,0,0,2.3-1.72,3.387,3.387,0,0,0,.8-2.084,2.548,2.548,0,0,0-.563-1.709,1.95,1.95,0,0,0-.359-.333,2,2,0,0,0-2.431.178,1.735,1.735,0,0,0-.485,1.246,1.428,1.428,0,0,0,.385,1.06c.022.022.043.044.067.064a1.537,1.537,0,0,0,1.026.386" transform="translate(-78.155 -77.453)" stroke="#fff" stroke-width="0.5"/>
    <path id="Tracé_1279" data-name="Tracé 1279" d="M246.791,245.2a1.591,1.591,0,1,0,1.591,1.591,1.592,1.592,0,0,0-1.591-1.591" transform="translate(-226.586 -226.585)" stroke="#fff" stroke-width="0.5"/>
  </g>
</svg>
