<svg xmlns="http://www.w3.org/2000/svg" xmlns:xlink="http://www.w3.org/1999/xlink" width="255" height="456" viewBox="0 0 255 456">
  <defs>
    <clipPath id="clip-path">
      <rect id="Rectangle_1714" data-name="Rectangle 1714" width="255" height="456" transform="translate(1185 2921)" fill="#fff" stroke="#707070" stroke-width="1"/>
    </clipPath>
  </defs>
  <g id="Groupe_de_masques_6" data-name="Groupe de masques 6" transform="translate(-1185 -2921)" clip-path="url(#clip-path)">
    <path id="Tracé_1280" data-name="Tracé 1280" d="M.2,239.535,15.995,380.6A31.593,31.593,0,0,0,53.925,408l223.4-47.211a31.594,31.594,0,0,0,24.27-23.887l12.695-55.671a31.593,31.593,0,0,1,25.472-24.116l89.9-15.387a31.594,31.594,0,0,0,20.83-13.428l53.26-78.663a31.592,31.592,0,0,0,1.727-32.559L452.584,17.723A31.6,31.6,0,0,0,424.831.976L197.036,0a31.6,31.6,0,0,0-24.7,11.728L7.027,216.154A31.59,31.59,0,0,0,.2,239.535Z" transform="translate(1694.59 3316.254) rotate(180)" fill="none" stroke="#fff" stroke-width="2"/>
  </g>
</svg>
