<svg xmlns="http://www.w3.org/2000/svg" width="21" height="23.158" viewBox="0 0 21 23.158">
  <path id="icone-footer-mail" d="M22.656,10.688a11.943,11.943,0,0,1-.385,2.59,7.5,7.5,0,0,1-1.007,2.275,5.315,5.315,0,0,1-1.708,1.616,4.819,4.819,0,0,1-2.493.615,3.615,3.615,0,0,1-1.8-.441,3.088,3.088,0,0,1-1.218-1.249,3.862,3.862,0,0,1-3.268,1.641A3.323,3.323,0,0,1,7.921,16.2a5.021,5.021,0,0,1-.709-1.777,7.664,7.664,0,0,1-.093-2.318,10.769,10.769,0,0,1,.706-2.839A7.717,7.717,0,0,1,9.131,7.092a5.522,5.522,0,0,1,1.794-1.386,5.007,5.007,0,0,1,2.182-.485,6.786,6.786,0,0,1,1.305.111,5.343,5.343,0,0,1,1.013.3,5.478,5.478,0,0,1,.839.443c.256.165.514.336.77.509L16.4,13.882a2.424,2.424,0,0,0,.019.854,1.2,1.2,0,0,0,.26.527.938.938,0,0,0,.423.275,1.569,1.569,0,0,0,1.485-.292,3.164,3.164,0,0,0,.8-1.013,6.524,6.524,0,0,0,.535-1.522,10.445,10.445,0,0,0,.234-1.9,12.115,12.115,0,0,0-.3-3.543,7.042,7.042,0,0,0-1.311-2.741,6.088,6.088,0,0,0-2.35-1.765,8.53,8.53,0,0,0-3.424-.627,7.56,7.56,0,0,0-3.386.738A7.77,7.77,0,0,0,6.811,4.923,9.82,9.82,0,0,0,5.127,8a13.871,13.871,0,0,0-.709,3.835,12.752,12.752,0,0,0,.362,3.913,7.067,7.067,0,0,0,1.43,2.8,5.966,5.966,0,0,0,2.422,1.684,9.292,9.292,0,0,0,3.343.559,11.45,11.45,0,0,0,2.194-.236c.362-.072.7-.159,1.032-.255a7.765,7.765,0,0,0,.889-.318l.459,2.064a5.092,5.092,0,0,1-.994.492,9.57,9.57,0,0,1-1.175.34,11.466,11.466,0,0,1-2.454.275,12.871,12.871,0,0,1-4.474-.721,8.235,8.235,0,0,1-3.262-2.145A9.007,9.007,0,0,1,2.23,16.752a15.1,15.1,0,0,1-.547-4.916,14.992,14.992,0,0,1,.941-4.718A11.675,11.675,0,0,1,4.889,3.37,10.327,10.327,0,0,1,8.347.9,10.824,10.824,0,0,1,12.824,0a11.3,11.3,0,0,1,4.338.777,8.438,8.438,0,0,1,3.132,2.185,8.968,8.968,0,0,1,1.858,3.376A12.909,12.909,0,0,1,22.656,10.688ZM10.228,12.107a4.923,4.923,0,0,0,.255,2.441,1.309,1.309,0,0,0,1.259.825,1.391,1.391,0,0,0,.431-.08,1.538,1.538,0,0,0,.5-.3,2.649,2.649,0,0,0,.5-.608,4.664,4.664,0,0,0,.463-1.027l.495-5.667a2.957,2.957,0,0,0-.77-.1,2.662,2.662,0,0,0-1.281.294,2.535,2.535,0,0,0-.907.862,5.065,5.065,0,0,0-.6,1.418,12.03,12.03,0,0,0-.342,1.939Z" transform="translate(-1.67)" fill="#ee6f52"/>
</svg>
