<svg xmlns="http://www.w3.org/2000/svg" xmlns:xlink="http://www.w3.org/1999/xlink" width="287" height="241" viewBox="0 0 287 241">
  <defs>
    <clipPath id="clip-path">
      <rect id="Rectangle_1636" data-name="Rectangle 1636" width="287" height="241" transform="translate(110 2515)" fill="#f8cdc5"/>
    </clipPath>
  </defs>
  <g id="illustration-accueil-bretagne" transform="translate(-110 -2515)" clip-path="url(#clip-path)">
    <path id="Tracé_48" data-name="Tracé 48" d="M11656.44,3814.7c-.282,3.462-1.735,6.55-3.358,9.552-1.5,2.781-3.1,5.512-4.607,8.288q-6.593,12.111-13.143,24.243c-2.4,4.456-4.724,8.953-7.16,13.385-2.525,4.6-4.836,9.364-7.814,13.659a17.229,17.229,0,0,1-13.179,7.807c-2.356.172-4.724.275-7.085.3-12.677.123-25.355.2-38.037.312-8.612.078-17.225.222-25.837.291-14.465.119-28.931.251-43.395.283q-10.689.018-21.372-.312c-3.416-.1-6.833-.468-10.226-.911a5.735,5.735,0,0,1-3.062-1.434c-3.1-3.01-6.1-6.127-9.046-9.286-2.448-2.62-4.8-5.323-7.146-8.037-2.583-3-5.1-6.058-7.647-9.093-2.641-3.15-5.294-6.288-7.923-9.45q-3.561-4.281-7.078-8.6-3.649-4.485-7.254-9.006-4.62-5.766-9.228-11.544-3.853-4.8-7.722-9.582c-1.071-1.331-2.136-2.669-3.221-4.025-.356-.476-.734-.936-1.128-1.388a.015.015,0,0,0,0-.008c-1.914-2.411-3.868-4.867-6.111-7.684a22.292,22.292,0,0,0-2.008-2.493c-1.29-1.647-2.542-3.24-3.794-4.834-3.225-4.1-6.437-8.21-9.677-12.3-2.85-3.6-5.742-7.158-8.595-10.752-2.937-3.7-5.96-7.352-8.744-11.171a17.194,17.194,0,0,1-3.409-11.117c.165-3.208.728-6.4,1.088-9.6.238-2.09.421-4.185.662-6.271.37-3.2.789-6.39,1.153-9.59.238-2.09.394-4.189.632-6.28.358-3.15.772-6.3,1.139-9.446.233-2.037.411-4.087.646-6.128.373-3.244.8-6.485,1.157-9.733.342-3.064.592-6.136.928-9.2.35-3.154.76-6.3,1.121-9.446.242-2.09.48-4.181.654-6.275.431-5.232,1.141-10.391,4.483-14.711,3.8-4.9,8.575-7.967,15.021-8.05,3.523-.041,6.833.981,10.213,1.664,5.895,1.183,11.762,2.484,17.647,3.725q7.4,1.564,14.806,3.109,10.318,2.169,20.637,4.345c5.36,1.138,10.712,2.312,16.071,3.446,6.829,1.442,13.672,2.85,20.5,4.3,5.736,1.216,11.465,2.472,17.2,3.692,5.93,1.261,11.885,2.4,17.785,3.783,3.894.907,7.978,1.137,11.591,3.187a15.656,15.656,0,0,1,7.837,10.76c1.108,5.126,2.023,10.288,2.977,15.442,1.125,6.115,2.16,12.251,3.326,18.358a36.407,36.407,0,0,0,1.787,6.863c2.09,5.138,6.18,7.836,11.552,8.78,6.071,1.068,12.137,2.185,18.211,3.249,5.841,1.022,11.689,1.983,17.527,3.006,6.075,1.064,12.145,2.14,18.206,3.269a62.642,62.642,0,0,1,7.355,1.659,13.317,13.317,0,0,1,6.8,5.311c4.448,6.312,8.793,12.7,13.216,19.031,6.571,9.4,13.035,18.892,19.824,28.136A20.745,20.745,0,0,1,11656.44,3814.7Z" transform="translate(-11269.518 -1115.126)" fill="#f8cdc5"/>
  </g>
</svg>
